# xmcd
#
# Track frame offsets: 
#        150
#        11977
#        22222
#        33807
#        51385
#        64902
#        77672
#        93332
#        104820
#        120260
#        132877
#        143462
#
# Disc length: 2090 seconds
#
# Revision: 0
# Processed by: cddbd v1.5.1PL0 Copyright (c) Steve Scherf et al.
# Submitted via: ExactAudioCopy v0.95a5
#
DISCID=a008280c
DTITLE=String Fever - Walk by the River
DYEAR=1996
DGENRE=Bluegrass
TTITLE0=Pathway of Teardrops
TTITLE1=Why Don't You Love Me Like You Used to Do?
TTITLE2=Dueling Banjos
TTITLE3=Those Memories of You
TTITLE4=Walkin' the Dog
TTITLE5=Just a Little Talk with Jesus
TTITLE6=Rider in the Rain
TTITLE7=Sophronie
TTITLE8=Stormy Waters
TTITLE9=Chattanooga Dog
TTITLE10=Alabama Jubilee
TTITLE11=Walk by the River
EXTD=
EXTT0=
EXTT1=
EXTT2=
EXTT3=
EXTT4=
EXTT5=
EXTT6=
EXTT7=
EXTT8=
EXTT9=
EXTT10=
EXTT11=
PLAYORDER=
